<mxfile host="app.diagrams.net" modified="2023-06-18T17:25:47.098Z" agent="Mozilla/5.0 (Windows NT 10.0; Win64; x64) AppleWebKit/537.36 (KHTML, like Gecko) Chrome/114.0.0.0 Safari/537.36" version="21.5.0" etag="pCF8zSGmKWxkRa3jlY4_" type="device">
  <diagram id="AidtiB8Hg66_8Er9h4OS" name="Page-1">
    <mxGraphModel dx="875" dy="514" grid="1" gridSize="10" guides="1" tooltips="1" connect="1" arrows="1" fold="1" page="1" pageScale="1" pageWidth="850" pageHeight="1100" math="0" shadow="0">
      <root>
        <mxCell id="0" />
        <mxCell id="1" parent="0" />
        <mxCell id="J8Ywtb4oWd87hStIpKOv-12" value="Weeder" style="text;html=1;strokeColor=none;fillColor=none;align=center;verticalAlign=middle;whiteSpace=wrap;rounded=0;fontSize=31;" vertex="1" parent="1">
          <mxGeometry x="30" y="40" width="410" height="30" as="geometry" />
        </mxCell>
        <mxCell id="J8Ywtb4oWd87hStIpKOv-13" value="Idle" style="rounded=1;whiteSpace=wrap;html=1;" vertex="1" parent="1">
          <mxGeometry x="130" y="160" width="120" height="60" as="geometry" />
        </mxCell>
        <mxCell id="J8Ywtb4oWd87hStIpKOv-15" style="edgeStyle=orthogonalEdgeStyle;rounded=0;orthogonalLoop=1;jettySize=auto;html=1;entryX=0.5;entryY=0;entryDx=0;entryDy=0;" edge="1" parent="1" source="J8Ywtb4oWd87hStIpKOv-14" target="J8Ywtb4oWd87hStIpKOv-13">
          <mxGeometry relative="1" as="geometry" />
        </mxCell>
        <mxCell id="J8Ywtb4oWd87hStIpKOv-14" value="" style="ellipse;whiteSpace=wrap;html=1;aspect=fixed;fillColor=#0d0c0c;" vertex="1" parent="1">
          <mxGeometry x="70" y="90" width="30" height="30" as="geometry" />
        </mxCell>
        <mxCell id="J8Ywtb4oWd87hStIpKOv-16" value="Plant_Position() /" style="text;html=1;align=center;verticalAlign=middle;resizable=0;points=[];autosize=1;strokeColor=none;fillColor=none;" vertex="1" parent="1">
          <mxGeometry x="180" y="100" width="110" height="30" as="geometry" />
        </mxCell>
        <mxCell id="J8Ywtb4oWd87hStIpKOv-19" value="Select_Weed" style="rounded=1;whiteSpace=wrap;html=1;" vertex="1" parent="1">
          <mxGeometry x="360" y="160" width="120" height="60" as="geometry" />
        </mxCell>
        <mxCell id="J8Ywtb4oWd87hStIpKOv-27" style="edgeStyle=orthogonalEdgeStyle;rounded=0;orthogonalLoop=1;jettySize=auto;html=1;" edge="1" parent="1" source="J8Ywtb4oWd87hStIpKOv-20" target="J8Ywtb4oWd87hStIpKOv-26">
          <mxGeometry relative="1" as="geometry" />
        </mxCell>
        <mxCell id="J8Ywtb4oWd87hStIpKOv-20" value="Eliminate_Weed" style="rounded=1;whiteSpace=wrap;html=1;" vertex="1" parent="1">
          <mxGeometry x="360" y="380" width="120" height="60" as="geometry" />
        </mxCell>
        <mxCell id="J8Ywtb4oWd87hStIpKOv-21" value="" style="endArrow=classic;html=1;rounded=0;exitX=1;exitY=0.5;exitDx=0;exitDy=0;entryX=0;entryY=0.5;entryDx=0;entryDy=0;" edge="1" parent="1" source="J8Ywtb4oWd87hStIpKOv-13" target="J8Ywtb4oWd87hStIpKOv-19">
          <mxGeometry width="50" height="50" relative="1" as="geometry">
            <mxPoint x="400" y="260" as="sourcePoint" />
            <mxPoint x="450" y="210" as="targetPoint" />
          </mxGeometry>
        </mxCell>
        <mxCell id="J8Ywtb4oWd87hStIpKOv-22" value="" style="endArrow=classic;html=1;rounded=0;exitX=0.5;exitY=1;exitDx=0;exitDy=0;" edge="1" parent="1" source="J8Ywtb4oWd87hStIpKOv-19" target="J8Ywtb4oWd87hStIpKOv-20">
          <mxGeometry width="50" height="50" relative="1" as="geometry">
            <mxPoint x="400" y="260" as="sourcePoint" />
            <mxPoint x="450" y="210" as="targetPoint" />
          </mxGeometry>
        </mxCell>
        <mxCell id="J8Ywtb4oWd87hStIpKOv-23" value="" style="endArrow=classic;html=1;rounded=0;exitX=0;exitY=0.5;exitDx=0;exitDy=0;entryX=0.5;entryY=1;entryDx=0;entryDy=0;" edge="1" parent="1" source="J8Ywtb4oWd87hStIpKOv-20" target="J8Ywtb4oWd87hStIpKOv-13">
          <mxGeometry width="50" height="50" relative="1" as="geometry">
            <mxPoint x="400" y="260" as="sourcePoint" />
            <mxPoint x="450" y="210" as="targetPoint" />
            <Array as="points">
              <mxPoint x="190" y="410" />
              <mxPoint x="190" y="380" />
            </Array>
          </mxGeometry>
        </mxCell>
        <mxCell id="J8Ywtb4oWd87hStIpKOv-24" value="/ Update_Weed_position()&amp;nbsp;" style="text;html=1;align=center;verticalAlign=middle;resizable=0;points=[];autosize=1;strokeColor=none;fillColor=none;rotation=90;" vertex="1" parent="1">
          <mxGeometry x="350" y="290" width="170" height="30" as="geometry" />
        </mxCell>
        <mxCell id="J8Ywtb4oWd87hStIpKOv-25" value="/Send_Ack()" style="text;html=1;align=center;verticalAlign=middle;resizable=0;points=[];autosize=1;strokeColor=none;fillColor=none;" vertex="1" parent="1">
          <mxGeometry x="200" y="380" width="90" height="30" as="geometry" />
        </mxCell>
        <mxCell id="J8Ywtb4oWd87hStIpKOv-26" value="Update_User" style="rounded=1;whiteSpace=wrap;html=1;" vertex="1" parent="1">
          <mxGeometry x="360" y="550" width="120" height="60" as="geometry" />
        </mxCell>
        <mxCell id="J8Ywtb4oWd87hStIpKOv-28" value="Weeder_Jamed()" style="text;html=1;align=center;verticalAlign=middle;resizable=0;points=[];autosize=1;strokeColor=none;fillColor=none;rotation=90;" vertex="1" parent="1">
          <mxGeometry x="375" y="478" width="120" height="30" as="geometry" />
        </mxCell>
        <mxCell id="J8Ywtb4oWd87hStIpKOv-29" value="/Abort ()" style="text;html=1;align=center;verticalAlign=middle;resizable=0;points=[];autosize=1;strokeColor=none;fillColor=none;rotation=270;" vertex="1" parent="1">
          <mxGeometry x="370" y="478" width="70" height="30" as="geometry" />
        </mxCell>
      </root>
    </mxGraphModel>
  </diagram>
</mxfile>
